# xmcd
#
# Track frame offsets: 
#        150
#        13667
#        28380
#        41100
#        53132
#        67307
#        80505
#        94935
#        108212
#        120950
#        134422
#        146385
#        159117
#        175440
#        188887
#
# Disc length: 2700 seconds
#
# Revision: 0
# Processed by: cddbd v1.5.2PL0 Copyright (c) Steve Scherf et al.
# Submitted via: ExactAudioCopyFreeDBPlugin 1.0
#
DISCID=cf0a8a0f
DTITLE=Various Artist - Cool Playing Blues Chicago Style
DYEAR=1989
DGENRE=Blues
TTITLE0=Jody Williams - Groan My Blues Away
TTITLE1=Jody Williams - I Feel So All Alone
TTITLE2=Little Papa Joe - Easy Lovin'
TTITLE3=Little Papa Joe - Looking For My Baby
TTITLE4=L.C. McKinley - Rosalie Blues
TTITLE5=L.C. McKinley - All Alone Blues
TTITLE6=Curtis Jones - Wrong Blues
TTITLE7=Curtis Jones - Cool Playing Blues
TTITLE8=St. Louis Jimmy - Murder In The First Degree
TTITLE9=St. Louis Jimmy - Going Down Slow
TTITLE10=Jo Jo Adams - Call My Baby
TTITLE11=Jo Jo Adams - Rebecca
TTITLE12=Nature Boy Brown - I'm Wise
TTITLE13=Nature Boy Brown - Lookout
TTITLE14=Nature Boy Brown - Blue Blues Boogie
EXTD=
EXTT0=
EXTT1=
EXTT2=
EXTT3=
EXTT4=
EXTT5=
EXTT6=
EXTT7=
EXTT8=
EXTT9=
EXTT10=
EXTT11=
EXTT12=
EXTT13=
EXTT14=
PLAYORDER=
